<svg xmlns="http://www.w3.org/2000/svg" xmlns:xlink="http://www.w3.org/1999/xlink" width="192" zoomAndPan="magnify" viewBox="0 0 144 143.999998" height="192" preserveAspectRatio="xMidYMid meet" version="1.0"><defs><clipPath id="e8786a25a9"><path d="M 5.632812 115 L 133 115 L 133 122.226562 L 5.632812 122.226562 Z M 5.632812 115 " clip-rule="nonzero"/></clipPath><clipPath id="d02acce69b"><path d="M 87 21.726562 L 138.382812 21.726562 L 138.382812 113 L 87 113 Z M 87 21.726562 " clip-rule="nonzero"/></clipPath></defs><rect x="-14.4" width="172.8" fill="#ffffff" y="-14.4" height="172.799997" fill-opacity="1"/><rect x="-14.4" width="172.8" fill="#ffffff" y="-14.4" height="172.799997" fill-opacity="1"/><g clip-path="url(#e8786a25a9)"><path fill="#000000" d="M 5.632812 115.527344 L 132.933594 115.527344 L 132.933594 122.179688 L 5.632812 122.179688 Z M 5.632812 115.527344 " fill-opacity="1" fill-rule="nonzero"/></g><path fill="#000000" d="M 56.386719 54.535156 L 56.304688 54.515625 L 53.140625 53.753906 L 53.140625 112.335938 L 90.902344 112.335938 L 90.902344 62.832031 Z M 64.210938 66.109375 L 79.996094 69.390625 L 79.996094 81.894531 L 64.207031 81.894531 Z M 84.058594 106.585938 L 59.984375 106.585938 L 59.984375 93.457031 L 84.054688 93.457031 Z M 84.058594 106.585938 " fill-opacity="1" fill-rule="nonzero"/><g clip-path="url(#d02acce69b)"><path fill="#6b6054" d="M 137.488281 38.71875 L 132.933594 35.523438 L 132.933594 35.570312 L 113.339844 21.800781 L 94.097656 34.824219 L 94.097656 34.726562 L 88.214844 38.699219 C 88.039062 38.820312 87.894531 38.96875 87.777344 39.144531 C 87.660156 39.320312 87.582031 39.511719 87.542969 39.722656 C 87.5 39.929688 87.503906 40.136719 87.542969 40.34375 C 87.585938 40.554688 87.667969 40.746094 87.785156 40.921875 C 87.90625 41.097656 88.054688 41.242188 88.230469 41.359375 C 88.40625 41.476562 88.601562 41.554688 88.808594 41.59375 C 89.015625 41.632812 89.222656 41.632812 89.433594 41.589844 C 89.640625 41.546875 89.832031 41.464844 90.007812 41.347656 L 94.097656 38.585938 L 94.097656 112.335938 L 132.933594 112.335938 L 132.933594 39.417969 L 135.648438 41.335938 C 135.824219 41.453125 136.011719 41.535156 136.21875 41.578125 C 136.421875 41.621094 136.628906 41.625 136.832031 41.585938 C 137.039062 41.546875 137.230469 41.472656 137.40625 41.359375 C 137.585938 41.246094 137.734375 41.105469 137.851562 40.933594 C 137.972656 40.761719 138.058594 40.574219 138.105469 40.371094 C 138.152344 40.164062 138.15625 39.960938 138.121094 39.753906 C 138.085938 39.546875 138.015625 39.355469 137.90625 39.175781 C 137.796875 38.996094 137.65625 38.847656 137.484375 38.722656 Z M 109.214844 105.179688 L 100.148438 105.179688 L 100.148438 96.113281 L 109.214844 96.113281 Z M 109.214844 86.894531 L 100.148438 86.894531 L 100.148438 77.828125 L 109.214844 77.828125 Z M 109.214844 68.609375 L 100.148438 68.609375 L 100.148438 59.542969 L 109.214844 59.542969 Z M 109.214844 50.324219 L 100.148438 50.324219 L 100.148438 41.257812 L 109.214844 41.257812 Z M 126.71875 105.179688 L 117.652344 105.179688 L 117.652344 96.113281 L 126.71875 96.113281 Z M 126.71875 86.894531 L 117.652344 86.894531 L 117.652344 77.828125 L 126.71875 77.828125 Z M 126.71875 68.609375 L 117.652344 68.609375 L 117.652344 59.542969 L 126.71875 59.542969 Z M 126.71875 50.324219 L 117.652344 50.324219 L 117.652344 41.257812 L 126.71875 41.257812 Z M 126.71875 50.324219 " fill-opacity="1" fill-rule="nonzero"/></g><path fill="#6b6054" d="M 13.914062 39.917969 L 13.914062 112.335938 L 49.949219 112.335938 L 49.949219 51.730469 C 49.949219 51.484375 50.003906 51.253906 50.109375 51.035156 C 50.214844 50.8125 50.363281 50.628906 50.558594 50.476562 C 50.75 50.324219 50.964844 50.222656 51.203125 50.167969 C 51.441406 50.117188 51.679688 50.121094 51.917969 50.175781 L 55.113281 50.945312 L 55.113281 25.683594 Z M 32.011719 102.210938 L 21.070312 102.210938 L 21.070312 91.269531 L 32.011719 91.269531 Z M 32.011719 81.738281 L 21.070312 81.738281 L 21.070312 70.796875 L 32.011719 70.796875 Z M 32.011719 61.265625 L 21.070312 61.265625 L 21.070312 50.324219 L 32.011719 50.324219 Z M 39.597656 61.265625 L 39.597656 50.324219 C 39.597656 50.113281 39.636719 49.910156 39.71875 49.714844 C 39.800781 49.515625 39.914062 49.34375 40.066406 49.195312 C 40.214844 49.046875 40.386719 48.929688 40.582031 48.847656 C 40.777344 48.769531 40.980469 48.726562 41.195312 48.726562 C 41.40625 48.726562 41.609375 48.769531 41.804688 48.847656 C 42 48.929688 42.171875 49.046875 42.324219 49.195312 C 42.472656 49.34375 42.585938 49.515625 42.667969 49.714844 C 42.75 49.910156 42.789062 50.113281 42.789062 50.324219 L 42.789062 61.265625 C 42.789062 61.476562 42.75 61.679688 42.667969 61.875 C 42.585938 62.070312 42.472656 62.242188 42.324219 62.394531 C 42.171875 62.542969 42 62.65625 41.804688 62.738281 C 41.609375 62.820312 41.40625 62.859375 41.195312 62.859375 C 40.980469 62.859375 40.777344 62.820312 40.582031 62.738281 C 40.386719 62.65625 40.214844 62.542969 40.066406 62.394531 C 39.914062 62.242188 39.800781 62.070312 39.71875 61.875 C 39.636719 61.679688 39.597656 61.476562 39.597656 61.265625 Z M 43.453125 102.210938 C 43.453125 102.421875 43.414062 102.625 43.332031 102.820312 C 43.25 103.015625 43.136719 103.1875 42.984375 103.339844 C 42.835938 103.488281 42.664062 103.601562 42.46875 103.683594 C 42.273438 103.765625 42.066406 103.804688 41.855469 103.804688 C 41.644531 103.804688 41.441406 103.765625 41.246094 103.683594 C 41.050781 103.601562 40.875 103.488281 40.726562 103.339844 C 40.578125 103.1875 40.460938 103.015625 40.382812 102.820312 C 40.300781 102.625 40.257812 102.421875 40.257812 102.210938 L 40.257812 91.269531 C 40.257812 91.058594 40.300781 90.855469 40.382812 90.660156 C 40.460938 90.460938 40.578125 90.289062 40.726562 90.140625 C 40.875 89.992188 41.050781 89.875 41.246094 89.792969 C 41.441406 89.714844 41.644531 89.671875 41.855469 89.671875 C 42.066406 89.671875 42.273438 89.714844 42.46875 89.792969 C 42.664062 89.875 42.835938 89.992188 42.984375 90.140625 C 43.136719 90.289062 43.25 90.460938 43.332031 90.660156 C 43.414062 90.855469 43.453125 91.058594 43.453125 91.269531 Z M 43.453125 81.738281 C 43.453125 81.949219 43.414062 82.152344 43.332031 82.347656 C 43.25 82.542969 43.136719 82.714844 42.984375 82.867188 C 42.835938 83.015625 42.664062 83.128906 42.46875 83.210938 C 42.273438 83.292969 42.066406 83.332031 41.855469 83.332031 C 41.644531 83.332031 41.441406 83.292969 41.246094 83.210938 C 41.050781 83.128906 40.875 83.015625 40.726562 82.867188 C 40.578125 82.714844 40.460938 82.542969 40.382812 82.347656 C 40.300781 82.152344 40.257812 81.949219 40.257812 81.738281 L 40.257812 70.796875 C 40.257812 70.585938 40.300781 70.382812 40.382812 70.1875 C 40.460938 69.988281 40.578125 69.816406 40.726562 69.667969 C 40.875 69.519531 41.050781 69.402344 41.246094 69.320312 C 41.441406 69.242188 41.644531 69.199219 41.855469 69.199219 C 42.066406 69.199219 42.273438 69.242188 42.46875 69.320312 C 42.664062 69.402344 42.835938 69.519531 42.984375 69.667969 C 43.136719 69.816406 43.25 69.988281 43.332031 70.1875 C 43.414062 70.382812 43.453125 70.585938 43.453125 70.796875 Z M 43.453125 81.738281 " fill-opacity="1" fill-rule="nonzero"/></svg>