<svg xmlns="http://www.w3.org/2000/svg" xmlns:xlink="http://www.w3.org/1999/xlink" width="192" zoomAndPan="magnify" viewBox="0 0 144 143.999998" height="192" preserveAspectRatio="xMidYMid meet" version="1.0"><rect x="-14.4" width="172.8" fill="#ffffff" y="-14.4" height="172.799997" fill-opacity="1"/><rect x="-14.4" width="172.8" fill="#ffffff" y="-14.4" height="172.799997" fill-opacity="1"/><path fill="#6b6054" d="M 12.789062 110.246094 C 19.453125 115.167969 31.035156 110.804688 38.667969 100.480469 C 46.300781 90.164062 47.078125 77.804688 40.414062 72.878906 C 33.75 67.953125 22.167969 72.320312 14.539062 82.636719 C 6.914062 92.964844 6.132812 105.320312 12.789062 110.246094 Z M 16.898438 84.390625 C 20.011719 80.179688 23.941406 77.207031 27.753906 75.8125 C 25.113281 77.433594 22.539062 79.753906 20.375 82.683594 C 14.238281 90.984375 13.609375 100.921875 18.96875 104.886719 C 21.609375 106.835938 25.214844 106.972656 28.921875 105.609375 C 24.074219 108.578125 18.953125 109.152344 15.488281 106.59375 C 10.132812 102.628906 10.761719 92.691406 16.898438 84.390625 Z M 16.898438 84.390625 " fill-opacity="1" fill-rule="nonzero"/><path fill="#6b6054" d="M 39.398438 101.03125 C 43.191406 95.902344 45.464844 90.109375 45.804688 84.726562 C 46.152344 79.195312 44.4375 74.734375 40.949219 72.164062 C 39.210938 70.871094 37.140625 70.148438 34.859375 69.984375 L 34.859375 56.144531 C 34.859375 53.46875 45.773438 51.304688 59.242188 51.304688 C 60.015625 51.304688 60.777344 51.3125 61.53125 51.328125 C 61.761719 51.335938 61.988281 51.335938 62.21875 51.34375 C 62.746094 51.359375 63.265625 51.375 63.777344 51.390625 C 64.035156 51.398438 64.292969 51.414062 64.546875 51.421875 C 65.035156 51.445312 65.515625 51.46875 65.996094 51.492188 C 66.238281 51.507812 66.480469 51.515625 66.71875 51.53125 C 67.292969 51.574219 67.859375 51.613281 68.417969 51.660156 C 68.535156 51.667969 68.652344 51.675781 68.773438 51.683594 C 69.417969 51.738281 70.046875 51.800781 70.660156 51.863281 C 70.910156 51.886719 71.148438 51.917969 71.398438 51.949219 C 71.769531 51.988281 72.132812 52.035156 72.492188 52.082031 C 72.769531 52.125 73.035156 52.15625 73.296875 52.195312 C 73.609375 52.242188 73.917969 52.28125 74.214844 52.328125 C 74.484375 52.367188 74.75 52.414062 75.011719 52.453125 C 75.292969 52.5 75.570312 52.554688 75.84375 52.601562 C 76.292969 52.691406 76.726562 52.777344 77.144531 52.863281 C 77.339844 52.902344 77.542969 52.949219 77.734375 52.988281 C 77.953125 53.183594 78.078125 53.390625 78.078125 53.59375 C 78.078125 54.710938 74.804688 55.703125 69.761719 56.332031 C 75.980469 55.8125 80.210938 54.859375 80.433594 53.75 C 80.589844 53.808594 80.746094 53.863281 80.886719 53.910156 C 81.007812 53.957031 81.117188 54.003906 81.226562 54.050781 C 81.660156 54.230469 82.039062 54.414062 82.359375 54.601562 C 82.382812 54.617188 82.40625 54.625 82.429688 54.640625 C 82.523438 54.789062 82.582031 54.949219 82.582031 55.105469 C 82.582031 55.460938 82.328125 55.804688 81.855469 56.136719 C 78.773438 58.316406 66.136719 59.945312 51.003906 59.945312 C 48.371094 59.945312 45.804688 59.898438 43.359375 59.800781 C 44.625 60.023438 46.023438 60.210938 47.496094 60.367188 C 47.425781 61.09375 47.207031 63.460938 47.140625 66.371094 C 47.0625 69.875 44.191406 71.714844 47.621094 72.753906 C 51.054688 73.785156 51.429688 71.085938 49.863281 67.105469 C 48.644531 63.996094 49.007812 61.5 49.21875 60.542969 C 51.25 60.722656 53.429688 60.855469 55.710938 60.917969 C 54.59375 65.003906 58.90625 71.28125 55.789062 77.261719 C 52.5625 83.460938 57 86.238281 54.429688 93.601562 C 51.855469 100.96875 56.648438 104.34375 58.109375 99.90625 C 59.574219 95.46875 55.9375 91.535156 59.015625 87.703125 C 62.089844 83.871094 60.527344 78.324219 59.015625 71.0625 C 57.882812 65.609375 59.015625 62.289062 59.660156 60.976562 C 61.101562 60.96875 62.5 60.941406 63.871094 60.886719 C 63.871094 61.910156 64.066406 64.183594 65.578125 65.804688 C 67.582031 67.960938 67.960938 63.570312 69.890625 62.746094 C 71.816406 61.910156 72.234375 68.078125 69.589844 71.824219 C 66.945312 75.570312 66.867188 77.160156 70.425781 78.480469 C 73.980469 79.804688 75.71875 76.929688 74.964844 68.914062 C 74.703125 66.128906 74.703125 64.089844 74.832031 62.621094 C 74.964844 60.992188 76.175781 59.652344 77.765625 59.28125 C 78.160156 59.1875 78.535156 59.09375 78.898438 59 C 78.898438 64.128906 78.898438 92.753906 78.898438 94.058594 C 78.898438 95.5 79.355469 96.324219 80.179688 95.648438 C 81.015625 94.964844 82.070312 95.269531 80.9375 89.222656 C 79.800781 83.171875 80.203125 76.664062 81.164062 73.484375 C 82.125 70.304688 81.917969 66.78125 80.707031 63.957031 C 79.898438 62.070312 80.28125 59.777344 80.628906 58.464844 C 82.539062 57.773438 83.632812 56.976562 83.632812 56.136719 L 83.632812 107.433594 C 83.632812 110.109375 72.722656 112.273438 59.25 112.273438 C 45.789062 112.273438 34.867188 110.109375 34.867188 107.433594 L 34.867188 106.089844 C 36.472656 104.601562 38.007812 102.910156 39.398438 101.03125 Z M 39.398438 101.03125 " fill-opacity="1" fill-rule="nonzero"/><path fill="#6b6054" d="M 87.945312 89.164062 L 90.226562 92.445312 C 87.410156 95.789062 86.820312 100.667969 89.261719 104.5 C 89.605469 105.042969 90.007812 105.59375 90.457031 106.121094 C 91.472656 107.324219 92.621094 108.238281 93.777344 108.929688 C 97.175781 110.96875 101.511719 110.558594 104.632812 108.113281 L 132.761719 86.113281 C 137.453125 82.445312 137.859375 75.277344 133.328125 71.421875 C 133.140625 71.257812 132.941406 71.109375 132.738281 70.960938 C 129.566406 68.628906 125.234375 68.683594 121.953125 70.863281 L 92.492188 90.410156 C 92.15625 90.628906 91.839844 90.882812 91.535156 91.132812 L 89.441406 88.113281 C 88.378906 86.585938 88.765625 84.476562 90.289062 83.421875 L 104.6875 73.429688 C 106.988281 71.832031 107.601562 68.636719 106.050781 66.300781 L 101.839844 59.945312 C 103.25 58.535156 103.515625 56.277344 102.351562 54.570312 L 86.523438 31.265625 C 85.207031 29.328125 82.570312 28.824219 80.636719 30.140625 C 78.699219 31.453125 78.199219 34.089844 79.511719 36.023438 L 95.34375 59.332031 C 96.011719 60.3125 97.011719 60.925781 98.097656 61.117188 C 98.828125 61.25 99.582031 61.179688 100.308594 60.910156 L 104.539062 67.300781 C 105.546875 68.820312 105.144531 70.894531 103.652344 71.933594 L 89.253906 81.925781 C 88.109375 82.714844 87.347656 83.902344 87.105469 85.261719 C 86.859375 86.648438 87.160156 88.023438 87.945312 89.164062 Z M 123.3125 74.695312 L 104.832031 85.429688 L 122.359375 72.871094 C 124.476562 71.351562 127.246094 70.894531 129.640625 71.902344 C 131.535156 72.707031 133.390625 74.445312 134.1875 78.070312 C 134.1875 78.070312 134.101562 77.859375 133.917969 77.519531 C 131.84375 73.769531 127.019531 72.546875 123.3125 74.695312 Z M 91.273438 93.957031 L 96.074219 100.875 C 96.214844 101.078125 96.429688 101.210938 96.65625 101.25 C 96.882812 101.289062 97.128906 101.242188 97.332031 101.101562 C 97.742188 100.820312 97.84375 100.25 97.5625 99.835938 L 92.730469 92.871094 C 96.019531 91.140625 100.496094 92.535156 103.070312 96.238281 C 105.804688 100.1875 105.335938 105.265625 102.007812 107.570312 C 98.679688 109.875 93.761719 108.542969 91.023438 104.601562 C 88.527344 101.007812 88.710938 96.484375 91.273438 93.957031 Z M 91.273438 93.957031 " fill-opacity="1" fill-rule="nonzero"/></svg>